<svg aria-roledescription="flowchart-v2" role="graphics-document document" viewBox="0 0 1559.046875 460" style="max-width: 1559.05px; background-color: white;" class="flowchart" xmlns:xlink="http://www.w3.org/1999/xlink" xmlns="http://www.w3.org/2000/svg" width="100%" id="my-svg"><style>#my-svg{font-family:"trebuchet ms",verdana,arial,sans-serif;font-size:16px;fill:#333;}@keyframes edge-animation-frame{from{stroke-dashoffset:0;}}@keyframes dash{to{stroke-dashoffset:0;}}#my-svg .edge-animation-slow{stroke-dasharray:9,5!important;stroke-dashoffset:900;animation:dash 50s linear infinite;stroke-linecap:round;}#my-svg .edge-animation-fast{stroke-dasharray:9,5!important;stroke-dashoffset:900;animation:dash 20s linear infinite;stroke-linecap:round;}#my-svg .error-icon{fill:hsl(220.5882352941, 100%, 98.3333333333%);}#my-svg .error-text{fill:rgb(8.5000000002, 5.7500000001, 0);stroke:rgb(8.5000000002, 5.7500000001, 0);}#my-svg .edge-thickness-normal{stroke-width:1px;}#my-svg .edge-thickness-thick{stroke-width:3.5px;}#my-svg .edge-pattern-solid{stroke-dasharray:0;}#my-svg .edge-thickness-invisible{stroke-width:0;fill:none;}#my-svg .edge-pattern-dashed{stroke-dasharray:3;}#my-svg .edge-pattern-dotted{stroke-dasharray:2;}#my-svg .marker{fill:#0b0b0b;stroke:#0b0b0b;}#my-svg .marker.cross{stroke:#0b0b0b;}#my-svg svg{font-family:"trebuchet ms",verdana,arial,sans-serif;font-size:16px;}#my-svg p{margin:0;}#my-svg .label{font-family:"trebuchet ms",verdana,arial,sans-serif;color:#333;}#my-svg .cluster-label text{fill:rgb(8.5000000002, 5.7500000001, 0);}#my-svg .cluster-label span{color:rgb(8.5000000002, 5.7500000001, 0);}#my-svg .cluster-label span p{background-color:transparent;}#my-svg .label text,#my-svg span{fill:#333;color:#333;}#my-svg .node rect,#my-svg .node circle,#my-svg .node ellipse,#my-svg .node polygon,#my-svg .node path{fill:#fff4dd;stroke:hsl(40.5882352941, 60%, 83.3333333333%);stroke-width:1px;}#my-svg .rough-node .label text,#my-svg .node .label text,#my-svg .image-shape .label,#my-svg .icon-shape .label{text-anchor:middle;}#my-svg .node .katex path{fill:#000;stroke:#000;stroke-width:1px;}#my-svg .rough-node .label,#my-svg .node .label,#my-svg .image-shape .label,#my-svg .icon-shape .label{text-align:center;}#my-svg .node.clickable{cursor:pointer;}#my-svg .root .anchor path{fill:#0b0b0b!important;stroke-width:0;stroke:#0b0b0b;}#my-svg .arrowheadPath{fill:#0b0b0b;}#my-svg .edgePath .path{stroke:#0b0b0b;stroke-width:2.0px;}#my-svg .flowchart-link{stroke:#0b0b0b;fill:none;}#my-svg .edgeLabel{background-color:hsl(-79.4117647059, 100%, 93.3333333333%);text-align:center;}#my-svg .edgeLabel p{background-color:hsl(-79.4117647059, 100%, 93.3333333333%);}#my-svg .edgeLabel rect{opacity:0.5;background-color:hsl(-79.4117647059, 100%, 93.3333333333%);fill:hsl(-79.4117647059, 100%, 93.3333333333%);}#my-svg .labelBkg{background-color:rgba(243.9999999999, 220.9999999998, 255, 0.5);}#my-svg .cluster rect{fill:hsl(220.5882352941, 100%, 98.3333333333%);stroke:hsl(220.5882352941, 60%, 88.3333333333%);stroke-width:1px;}#my-svg .cluster text{fill:rgb(8.5000000002, 5.7500000001, 0);}#my-svg .cluster span{color:rgb(8.5000000002, 5.7500000001, 0);}#my-svg div.mermaidTooltip{position:absolute;text-align:center;max-width:200px;padding:2px;font-family:"trebuchet ms",verdana,arial,sans-serif;font-size:12px;background:hsl(220.5882352941, 100%, 98.3333333333%);border:1px solid hsl(220.5882352941, 60%, 88.3333333333%);border-radius:2px;pointer-events:none;z-index:100;}#my-svg .flowchartTitleText{text-anchor:middle;font-size:18px;fill:#333;}#my-svg rect.text{fill:none;stroke-width:0;}#my-svg .icon-shape,#my-svg .image-shape{background-color:hsl(-79.4117647059, 100%, 93.3333333333%);text-align:center;}#my-svg .icon-shape p,#my-svg .image-shape p{background-color:hsl(-79.4117647059, 100%, 93.3333333333%);padding:2px;}#my-svg .icon-shape rect,#my-svg .image-shape rect{opacity:0.5;background-color:hsl(-79.4117647059, 100%, 93.3333333333%);fill:hsl(-79.4117647059, 100%, 93.3333333333%);}#my-svg .label-icon{display:inline-block;height:1em;overflow:visible;vertical-align:-0.125em;}#my-svg .node .label-icon path{fill:currentColor;stroke:revert;stroke-width:revert;}#my-svg :root{--mermaid-font-family:"trebuchet ms",verdana,arial,sans-serif;}</style><g><marker orient="auto" markerHeight="8" markerWidth="8" markerUnits="userSpaceOnUse" refY="5" refX="5" viewBox="0 0 10 10" class="marker flowchart-v2" id="my-svg_flowchart-v2-pointEnd"><path style="stroke-width: 1; stroke-dasharray: 1, 0;" class="arrowMarkerPath" d="M 0 0 L 10 5 L 0 10 z"/></marker><marker orient="auto" markerHeight="8" markerWidth="8" markerUnits="userSpaceOnUse" refY="5" refX="4.5" viewBox="0 0 10 10" class="marker flowchart-v2" id="my-svg_flowchart-v2-pointStart"><path style="stroke-width: 1; stroke-dasharray: 1, 0;" class="arrowMarkerPath" d="M 0 5 L 10 10 L 10 0 z"/></marker><marker orient="auto" markerHeight="11" markerWidth="11" markerUnits="userSpaceOnUse" refY="5" refX="11" viewBox="0 0 10 10" class="marker flowchart-v2" id="my-svg_flowchart-v2-circleEnd"><circle style="stroke-width: 1; stroke-dasharray: 1, 0;" class="arrowMarkerPath" r="5" cy="5" cx="5"/></marker><marker orient="auto" markerHeight="11" markerWidth="11" markerUnits="userSpaceOnUse" refY="5" refX="-1" viewBox="0 0 10 10" class="marker flowchart-v2" id="my-svg_flowchart-v2-circleStart"><circle style="stroke-width: 1; stroke-dasharray: 1, 0;" class="arrowMarkerPath" r="5" cy="5" cx="5"/></marker><marker orient="auto" markerHeight="11" markerWidth="11" markerUnits="userSpaceOnUse" refY="5.2" refX="12" viewBox="0 0 11 11" class="marker cross flowchart-v2" id="my-svg_flowchart-v2-crossEnd"><path style="stroke-width: 2; stroke-dasharray: 1, 0;" class="arrowMarkerPath" d="M 1,1 l 9,9 M 10,1 l -9,9"/></marker><marker orient="auto" markerHeight="11" markerWidth="11" markerUnits="userSpaceOnUse" refY="5.2" refX="-1" viewBox="0 0 11 11" class="marker cross flowchart-v2" id="my-svg_flowchart-v2-crossStart"><path style="stroke-width: 2; stroke-dasharray: 1, 0;" class="arrowMarkerPath" d="M 1,1 l 9,9 M 10,1 l -9,9"/></marker><g class="root"><g class="clusters"><g data-look="classic" id="外部系統" class="cluster"><rect height="386.4982376098633" width="193.671875" y="33.50176239013672" x="1357.375" style=""/><g transform="translate(1422.2109375, 33.50176239013672)" class="cluster-label"><foreignObject height="24" width="64"><div style="display: table-cell; white-space: nowrap; line-height: 1.5; max-width: 200px; text-align: center;" xmlns="http://www.w3.org/1999/xhtml"><span class="nodeLabel"><p>外部系統</p></span></div></foreignObject></g></g><g data-look="classic" id="subGraph4" class="cluster"><rect height="444" width="459.4375" y="8" x="847.9375" style=""/><g transform="translate(1012.3671875, 8)" class="cluster-label"><foreignObject height="24" width="130.578125"><div style="display: table-cell; white-space: nowrap; line-height: 1.5; max-width: 200px; text-align: center;" xmlns="http://www.w3.org/1999/xhtml"><span class="nodeLabel"><p>Tool 層 (執行手臂)</p></span></div></foreignObject></g></g><g data-look="classic" id="subGraph2" class="cluster"><rect height="444" width="533.9375" y="8" x="264" style=""/><g transform="translate(459.6328125, 8)" class="cluster-label"><foreignObject height="24" width="142.671875"><div style="display: table-cell; white-space: nowrap; line-height: 1.5; max-width: 200px; text-align: center;" xmlns="http://www.w3.org/1999/xhtml"><span class="nodeLabel"><p>Agent 層 (決策大腦)</p></span></div></foreignObject></g></g><g data-look="classic" id="使用者請求" class="cluster"><rect height="124" width="206" y="168" x="8" style=""/><g transform="translate(71, 168)" class="cluster-label"><foreignObject height="24" width="80"><div style="display: table-cell; white-space: nowrap; line-height: 1.5; max-width: 200px; text-align: center;" xmlns="http://www.w3.org/1999/xhtml"><span class="nodeLabel"><p>使用者請求</p></span></div></foreignObject></g></g><g data-look="classic" id="執行職責" class="cluster"><rect height="404" width="174" y="28" x="1108.375" style=""/><g transform="translate(1163.375, 28)" class="cluster-label"><foreignObject height="24" width="64"><div style="display: table-cell; white-space: nowrap; line-height: 1.5; max-width: 200px; text-align: center;" xmlns="http://www.w3.org/1999/xhtml"><span class="nodeLabel"><p>執行職責</p></span></div></foreignObject></g></g><g data-look="classic" id="決策職責" class="cluster"><rect height="404" width="190" y="28" x="582.9375" style=""/><g transform="translate(645.9375, 28)" class="cluster-label"><foreignObject height="24" width="64"><div style="display: table-cell; white-space: nowrap; line-height: 1.5; max-width: 200px; text-align: center;" xmlns="http://www.w3.org/1999/xhtml"><span class="nodeLabel"><p>決策職責</p></span></div></foreignObject></g></g></g><g class="edgePaths"><path marker-end="url(#my-svg_flowchart-v2-pointEnd)" style="" class="edge-thickness-normal edge-pattern-solid edge-thickness-normal edge-pattern-solid flowchart-link" id="L_REQ_AGENT_0" d="M189,230L193.167,230C197.333,230,205.667,230,214,230C222.333,230,230.667,230,239,230C247.333,230,255.667,230,263.333,230C271,230,278,230,281.5,230L285,230"/><path marker-end="url(#my-svg_flowchart-v2-pointEnd)" style="" class="edge-thickness-normal edge-pattern-solid edge-thickness-normal edge-pattern-solid flowchart-link" id="L_AGENT_D1_0" d="M455.748,191L472.78,176.167C489.811,161.333,523.874,131.667,545.073,116.833C566.271,102,574.604,102,582.271,102C589.938,102,596.938,102,600.438,102L603.938,102"/><path marker-end="url(#my-svg_flowchart-v2-pointEnd)" style="" class="edge-thickness-normal edge-pattern-solid edge-thickness-normal edge-pattern-solid flowchart-link" id="L_AGENT_D2_0" d="M455.748,269L472.78,283.833C489.811,298.667,523.874,328.333,545.073,343.167C566.271,358,574.604,358,583.604,358C592.604,358,602.271,358,607.104,358L611.938,358"/><path marker-end="url(#my-svg_flowchart-v2-pointEnd)" style="" class="edge-thickness-normal edge-pattern-solid edge-thickness-normal edge-pattern-solid flowchart-link" id="L_AGENT_D3_0" d="M532.938,230L537.104,230C541.271,230,549.604,230,557.938,230C566.271,230,574.604,230,583.604,230C592.604,230,602.271,230,607.104,230L611.938,230"/><path marker-end="url(#my-svg_flowchart-v2-pointEnd)" style="" class="edge-thickness-normal edge-pattern-solid edge-thickness-normal edge-pattern-solid flowchart-link" id="L_D1_TOOL1_0" d="M747.938,102L752.104,102C756.271,102,764.604,102,772.938,102C781.271,102,789.604,102,797.938,102C806.271,102,814.604,102,822.938,102C831.271,102,839.604,102,847.271,102C854.938,102,861.938,102,865.438,102L868.938,102"/><path marker-end="url(#my-svg_flowchart-v2-pointEnd)" style="" class="edge-thickness-normal edge-pattern-solid edge-thickness-normal edge-pattern-solid flowchart-link" id="L_D2_TOOL2_0" d="M739.938,358L745.438,358C750.938,358,761.938,358,771.604,358C781.271,358,789.604,358,797.938,358C806.271,358,814.604,358,822.938,358C831.271,358,839.604,358,847.703,358C855.802,358,863.667,358,867.599,358L871.531,358"/><path marker-end="url(#my-svg_flowchart-v2-pointEnd)" style="" class="edge-thickness-normal edge-pattern-solid edge-thickness-normal edge-pattern-solid flowchart-link" id="L_D3_TOOL3_0" d="M739.938,230L745.438,230C750.938,230,761.938,230,771.604,230C781.271,230,789.604,230,797.938,230C806.271,230,814.604,230,822.938,230C831.271,230,839.604,230,847.272,230C854.94,230,861.943,230,865.444,230L868.945,230"/><path marker-end="url(#my-svg_flowchart-v2-pointEnd)" style="" class="edge-thickness-normal edge-pattern-solid edge-thickness-normal edge-pattern-solid flowchart-link" id="L_TOOL1_E1_0" d="M1058.375,102L1062.542,102C1066.708,102,1075.042,102,1083.375,102C1091.708,102,1100.042,102,1107.708,102C1115.375,102,1122.375,102,1125.875,102L1129.375,102"/><path marker-end="url(#my-svg_flowchart-v2-pointEnd)" style="" class="edge-thickness-normal edge-pattern-solid edge-thickness-normal edge-pattern-solid flowchart-link" id="L_TOOL2_E2_0" d="M1055.781,358L1060.38,358C1064.979,358,1074.177,358,1082.943,358C1091.708,358,1100.042,358,1107.708,358C1115.375,358,1122.375,358,1125.875,358L1129.375,358"/><path marker-end="url(#my-svg_flowchart-v2-pointEnd)" style="" class="edge-thickness-normal edge-pattern-solid edge-thickness-normal edge-pattern-solid flowchart-link" id="L_TOOL3_E3_0" d="M1058.367,230L1062.535,230C1066.703,230,1075.039,230,1083.374,230C1091.708,230,1100.042,230,1107.708,230C1115.375,230,1122.375,230,1125.875,230L1129.375,230"/><path marker-end="url(#my-svg_flowchart-v2-pointEnd)" style="" class="edge-thickness-normal edge-pattern-solid edge-thickness-normal edge-pattern-solid flowchart-link" id="L_E1_DB_0" d="M1257.375,102L1261.542,102C1265.708,102,1274.042,102,1282.375,102C1290.708,102,1299.042,102,1307.375,102C1315.708,102,1324.042,102,1332.375,102C1340.708,102,1349.042,102,1362.477,102C1375.911,102,1394.448,102,1403.716,102L1412.984,102"/><path marker-end="url(#my-svg_flowchart-v2-pointEnd)" style="" class="edge-thickness-normal edge-pattern-solid edge-thickness-normal edge-pattern-solid flowchart-link" id="L_E2_FS_0" d="M1257.375,358L1261.542,358C1265.708,358,1274.042,358,1282.375,358C1290.708,358,1299.042,358,1307.375,358C1315.708,358,1324.042,358,1332.375,358C1340.708,358,1349.042,358,1356.878,358C1364.714,358,1372.052,358,1375.721,358L1379.391,358"/><path marker-end="url(#my-svg_flowchart-v2-pointEnd)" style="" class="edge-thickness-normal edge-pattern-solid edge-thickness-normal edge-pattern-solid flowchart-link" id="L_E3_GF_0" d="M1257.375,230L1261.542,230C1265.708,230,1274.042,230,1282.375,230C1290.708,230,1299.042,230,1307.375,230C1315.708,230,1324.042,230,1332.375,230C1340.708,230,1349.042,230,1356.708,230C1364.375,230,1371.375,230,1374.875,230L1378.375,230"/></g><g class="edgeLabels"><g class="edgeLabel"><g transform="translate(0, 0)" class="label"><foreignObject height="0" width="0"><div style="display: table-cell; white-space: nowrap; line-height: 1.5; max-width: 200px; text-align: center;" class="labelBkg" xmlns="http://www.w3.org/1999/xhtml"><span class="edgeLabel"></span></div></foreignObject></g></g><g class="edgeLabel"><g transform="translate(0, 0)" class="label"><foreignObject height="0" width="0"><div style="display: table-cell; white-space: nowrap; line-height: 1.5; max-width: 200px; text-align: center;" class="labelBkg" xmlns="http://www.w3.org/1999/xhtml"><span class="edgeLabel"></span></div></foreignObject></g></g><g class="edgeLabel"><g transform="translate(0, 0)" class="label"><foreignObject height="0" width="0"><div style="display: table-cell; white-space: nowrap; line-height: 1.5; max-width: 200px; text-align: center;" class="labelBkg" xmlns="http://www.w3.org/1999/xhtml"><span class="edgeLabel"></span></div></foreignObject></g></g><g class="edgeLabel"><g transform="translate(0, 0)" class="label"><foreignObject height="0" width="0"><div style="display: table-cell; white-space: nowrap; line-height: 1.5; max-width: 200px; text-align: center;" class="labelBkg" xmlns="http://www.w3.org/1999/xhtml"><span class="edgeLabel"></span></div></foreignObject></g></g><g class="edgeLabel"><g transform="translate(0, 0)" class="label"><foreignObject height="0" width="0"><div style="display: table-cell; white-space: nowrap; line-height: 1.5; max-width: 200px; text-align: center;" class="labelBkg" xmlns="http://www.w3.org/1999/xhtml"><span class="edgeLabel"></span></div></foreignObject></g></g><g class="edgeLabel"><g transform="translate(0, 0)" class="label"><foreignObject height="0" width="0"><div style="display: table-cell; white-space: nowrap; line-height: 1.5; max-width: 200px; text-align: center;" class="labelBkg" xmlns="http://www.w3.org/1999/xhtml"><span class="edgeLabel"></span></div></foreignObject></g></g><g class="edgeLabel"><g transform="translate(0, 0)" class="label"><foreignObject height="0" width="0"><div style="display: table-cell; white-space: nowrap; line-height: 1.5; max-width: 200px; text-align: center;" class="labelBkg" xmlns="http://www.w3.org/1999/xhtml"><span class="edgeLabel"></span></div></foreignObject></g></g><g class="edgeLabel"><g transform="translate(0, 0)" class="label"><foreignObject height="0" width="0"><div style="display: table-cell; white-space: nowrap; line-height: 1.5; max-width: 200px; text-align: center;" class="labelBkg" xmlns="http://www.w3.org/1999/xhtml"><span class="edgeLabel"></span></div></foreignObject></g></g><g class="edgeLabel"><g transform="translate(0, 0)" class="label"><foreignObject height="0" width="0"><div style="display: table-cell; white-space: nowrap; line-height: 1.5; max-width: 200px; text-align: center;" class="labelBkg" xmlns="http://www.w3.org/1999/xhtml"><span class="edgeLabel"></span></div></foreignObject></g></g><g class="edgeLabel"><g transform="translate(0, 0)" class="label"><foreignObject height="0" width="0"><div style="display: table-cell; white-space: nowrap; line-height: 1.5; max-width: 200px; text-align: center;" class="labelBkg" xmlns="http://www.w3.org/1999/xhtml"><span class="edgeLabel"></span></div></foreignObject></g></g><g class="edgeLabel"><g transform="translate(0, 0)" class="label"><foreignObject height="0" width="0"><div style="display: table-cell; white-space: nowrap; line-height: 1.5; max-width: 200px; text-align: center;" class="labelBkg" xmlns="http://www.w3.org/1999/xhtml"><span class="edgeLabel"></span></div></foreignObject></g></g><g class="edgeLabel"><g transform="translate(0, 0)" class="label"><foreignObject height="0" width="0"><div style="display: table-cell; white-space: nowrap; line-height: 1.5; max-width: 200px; text-align: center;" class="labelBkg" xmlns="http://www.w3.org/1999/xhtml"><span class="edgeLabel"></span></div></foreignObject></g></g><g class="edgeLabel"><g transform="translate(0, 0)" class="label"><foreignObject height="0" width="0"><div style="display: table-cell; white-space: nowrap; line-height: 1.5; max-width: 200px; text-align: center;" class="labelBkg" xmlns="http://www.w3.org/1999/xhtml"><span class="edgeLabel"></span></div></foreignObject></g></g></g><g class="nodes"><g transform="translate(111, 230)" id="flowchart-REQ-0" class="node default"><rect height="54" width="156" y="-27" x="-78" style="" class="basic label-container"/><g transform="translate(-48, -12)" style="" class="label"><rect/><foreignObject height="24" width="96"><div style="display: table-cell; white-space: nowrap; line-height: 1.5; max-width: 200px; text-align: center;" xmlns="http://www.w3.org/1999/xhtml"><span class="nodeLabel"><p>事後複盤請求</p></span></div></foreignObject></g></g><g transform="translate(677.9375, 102)" id="flowchart-D1-1" class="node default"><rect height="78" width="140" y="-39" x="-70" style="fill:#81C784 !important;stroke:#4CAF50 !important" class="basic label-container"/><g transform="translate(-40, -24)" style="color:#000 !important" class="label"><rect/><foreignObject height="48" width="80"><div xmlns="http://www.w3.org/1999/xhtml" style="color: rgb(0, 0, 0) !important; display: table-cell; white-space: nowrap; line-height: 1.5; max-width: 200px; text-align: center;"><span class="nodeLabel" style="color:#000 !important"><p>為什麼分析<br />WHY</p></span></div></foreignObject></g></g><g transform="translate(677.9375, 358)" id="flowchart-D2-2" class="node default"><rect height="78" width="124" y="-39" x="-62" style="fill:#81C784 !important;stroke:#4CAF50 !important" class="basic label-container"/><g transform="translate(-32, -24)" style="color:#000 !important" class="label"><rect/><foreignObject height="48" width="64"><div xmlns="http://www.w3.org/1999/xhtml" style="color: rgb(0, 0, 0) !important; display: table-cell; white-space: nowrap; line-height: 1.5; max-width: 200px; text-align: center;"><span class="nodeLabel" style="color:#000 !important"><p>分析什麼<br />WHAT</p></span></div></foreignObject></g></g><g transform="translate(677.9375, 230)" id="flowchart-D3-3" class="node default"><rect height="78" width="124" y="-39" x="-62" style="fill:#81C784 !important;stroke:#4CAF50 !important" class="basic label-container"/><g transform="translate(-32, -24)" style="color:#000 !important" class="label"><rect/><foreignObject height="48" width="64"><div xmlns="http://www.w3.org/1999/xhtml" style="color: rgb(0, 0, 0) !important; display: table-cell; white-space: nowrap; line-height: 1.5; max-width: 200px; text-align: center;"><span class="nodeLabel" style="color:#000 !important"><p>何時執行<br />WHEN</p></span></div></foreignObject></g></g><g transform="translate(410.96875, 230)" id="flowchart-AGENT-4" class="node default"><rect height="78" width="243.9375" y="-39" x="-121.96875" style="fill:#4CAF50 !important;stroke:#2E7D32 !important;stroke-width:3px !important" class="basic label-container"/><g transform="translate(-91.96875, -24)" style="color:#FFF !important" class="label"><rect/><foreignObject height="48" width="183.9375"><div xmlns="http://www.w3.org/1999/xhtml" style="color: rgb(255, 255, 255) !important; display: table-cell; white-space: nowrap; line-height: 1.5; max-width: 200px; text-align: center;"><span class="nodeLabel" style="color:#FFF !important"><p>postmortem_orchestrator<br />協調器 Root Agent</p></span></div></foreignObject></g></g><g transform="translate(1195.375, 102)" id="flowchart-E1-5" class="node default"><rect height="78" width="124" y="-39" x="-62" style="" class="basic label-container"/><g transform="translate(-32, -24)" style="" class="label"><rect/><foreignObject height="48" width="64"><div style="display: table-cell; white-space: nowrap; line-height: 1.5; max-width: 200px; text-align: center;" xmlns="http://www.w3.org/1999/xhtml"><span class="nodeLabel"><p>如何查詢<br />HOW</p></span></div></foreignObject></g></g><g transform="translate(1195.375, 358)" id="flowchart-E2-6" class="node default"><rect height="78" width="124" y="-39" x="-62" style="" class="basic label-container"/><g transform="translate(-32, -24)" style="" class="label"><rect/><foreignObject height="48" width="64"><div style="display: table-cell; white-space: nowrap; line-height: 1.5; max-width: 200px; text-align: center;" xmlns="http://www.w3.org/1999/xhtml"><span class="nodeLabel"><p>從哪查詢<br />WHERE</p></span></div></foreignObject></g></g><g transform="translate(1195.375, 230)" id="flowchart-E3-7" class="node default"><rect height="78" width="124" y="-39" x="-62" style="" class="basic label-container"/><g transform="translate(-32, -24)" style="" class="label"><rect/><foreignObject height="48" width="64"><div style="display: table-cell; white-space: nowrap; line-height: 1.5; max-width: 200px; text-align: center;" xmlns="http://www.w3.org/1999/xhtml"><span class="nodeLabel"><p>用什麼查<br />WITH</p></span></div></foreignObject></g></g><g transform="translate(965.65625, 102)" id="flowchart-TOOL1-8" class="node default"><rect height="78" width="185.4375" y="-39" x="-92.71875" style="fill:#2196F3 !important;stroke:#1565C0 !important;stroke-width:2px !important" class="basic label-container"/><g transform="translate(-62.71875, -24)" style="color:#FFF !important" class="label"><rect/><foreignObject height="48" width="125.4375"><div xmlns="http://www.w3.org/1999/xhtml" style="color: rgb(255, 255, 255) !important; display: table-cell; white-space: nowrap; line-height: 1.5; max-width: 200px; text-align: center;"><span class="nodeLabel" style="color:#FFF !important"><p>HealthAggregator<br />數據查詢</p></span></div></foreignObject></g></g><g transform="translate(965.65625, 358)" id="flowchart-TOOL2-9" class="node default"><rect height="78" width="180.25" y="-39" x="-90.125" style="fill:#2196F3 !important;stroke:#1565C0 !important;stroke-width:2px !important" class="basic label-container"/><g transform="translate(-60.125, -24)" style="color:#FFF !important" class="label"><rect/><foreignObject height="48" width="120.25"><div xmlns="http://www.w3.org/1999/xhtml" style="color: rgb(255, 255, 255) !important; display: table-cell; white-space: nowrap; line-height: 1.5; max-width: 200px; text-align: center;"><span class="nodeLabel" style="color:#FFF !important"><p>ReportGenerator<br />報告生成</p></span></div></foreignObject></g></g><g transform="translate(965.65625, 230)" id="flowchart-TOOL3-10" class="node default"><rect height="78" width="185.421875" y="-39" x="-92.7109375" style="fill:#2196F3 !important;stroke:#1565C0 !important;stroke-width:2px !important" class="basic label-container"/><g transform="translate(-62.7109375, -24)" style="color:#FFF !important" class="label"><rect/><foreignObject height="48" width="125.421875"><div xmlns="http://www.w3.org/1999/xhtml" style="color: rgb(255, 255, 255) !important; display: table-cell; white-space: nowrap; line-height: 1.5; max-width: 200px; text-align: center;"><span class="nodeLabel" style="color:#FFF !important"><p>DashboardBuilder<br />儀表板創建</p></span></div></foreignObject></g></g><g transform="translate(1454.2109375, 102)" id="flowchart-DB-11" class="node default"><path transform="translate(-37.2265625, -33.49823736780259)" style="" class="basic label-container" d="M0,9.332158245201724 a37.2265625,9.332158245201724 0,0,0 74.453125,0 a37.2265625,9.332158245201724 0,0,0 -74.453125,0 l0,48.332158245201725 a37.2265625,9.332158245201724 0,0,0 74.453125,0 l0,-48.332158245201725"/><g transform="translate(-29.7265625, -2)" style="" class="label"><rect/><foreignObject height="24" width="59.453125"><div style="display: table-cell; white-space: nowrap; line-height: 1.5; max-width: 200px; text-align: center;" xmlns="http://www.w3.org/1999/xhtml"><span class="nodeLabel"><p>InfluxDB</p></span></div></foreignObject></g></g><g transform="translate(1454.2109375, 230)" id="flowchart-GF-12" class="node default"><rect height="54" width="143.671875" y="-27" x="-71.8359375" style="" class="basic label-container"/><g transform="translate(-41.8359375, -12)" style="" class="label"><rect/><foreignObject height="24" width="83.671875"><div style="display: table-cell; white-space: nowrap; line-height: 1.5; max-width: 200px; text-align: center;" xmlns="http://www.w3.org/1999/xhtml"><span class="nodeLabel"><p>Grafana API</p></span></div></foreignObject></g></g><g transform="translate(1454.2109375, 358)" id="flowchart-FS-13" class="node default"><rect height="54" width="141.640625" y="-27" x="-70.8203125" style="" class="basic label-container"/><g transform="translate(-40.8203125, -12)" style="" class="label"><rect/><foreignObject height="24" width="81.640625"><div style="display: table-cell; white-space: nowrap; line-height: 1.5; max-width: 200px; text-align: center;" xmlns="http://www.w3.org/1999/xhtml"><span class="nodeLabel"><p>File System</p></span></div></foreignObject></g></g></g></g></g></svg>